<svg width="29" height="109" viewBox="0 0 29 109" fill="none" xmlns="http://www.w3.org/2000/svg">
<path d="M0.999999 19.165L0.999999 22.717L26.641 13.43L26.641 9.545L1 0.220998L1 3.773L6.735 5.845L6.735 17.093L0.999999 19.165ZM9.473 16.131L9.473 6.807L22.497 11.469L9.473 16.131ZM17.502 30.1476L28.38 30.1476L28.38 26.7806L0.999999 26.7806L0.999999 30.1476L4.737 30.1476C2.517 31.4056 0.666998 34.0326 0.666998 37.7326C0.666998 43.1716 4.922 47.3526 11.212 47.3526C17.539 47.3526 21.609 43.2086 21.609 37.7326C21.609 34.1436 19.759 31.4426 17.502 30.1476ZM11.212 43.9116C6.439 43.9116 3.627 40.7666 3.627 37.0296C3.627 33.3666 6.402 30.1476 11.175 30.1476C15.874 30.1476 18.686 33.3666 18.686 37.0296C18.686 40.7666 15.985 43.9116 11.212 43.9116ZM11.175 71.0245C17.576 71.0245 21.609 66.5475 21.609 60.7755C21.609 55.0405 17.576 50.5265 11.175 50.5265C4.737 50.5265 0.666998 54.8925 0.666997 60.6275C0.666997 66.3995 4.737 71.0245 11.175 71.0245ZM11.175 53.9675C16.281 53.9675 18.686 57.1865 18.686 60.7385C18.686 64.2165 16.281 67.5835 11.175 67.5835C6.032 67.5835 3.627 64.1425 3.627 60.6275C3.627 57.1125 6.032 53.9675 11.175 53.9675ZM21.276 93.4335L21.276 90.0665L10.139 90.0665C5.773 90.0665 3.627 87.7355 3.627 84.2575C3.627 80.8535 5.736 78.5965 9.843 78.5965L21.276 78.5965L21.276 75.2665L9.399 75.2665C3.59 75.2665 0.703996 78.9295 0.703996 83.5915C0.703996 86.2925 1.888 88.7715 3.997 90.0665L0.999996 90.0665L0.999996 93.4335L21.276 93.4335ZM6.55 99.8585C2.48 99.8585 0.999996 101.894 0.999995 105.483L0.999995 108.517L3.849 108.517L3.849 106.038C3.849 103.966 4.552 103.226 6.55 103.226L18.501 103.226L18.501 108.517L21.276 108.517L21.276 103.226L26.382 103.226L26.382 99.8585L21.276 99.8585L21.276 97.2315L18.501 97.2315L18.501 99.8585L6.55 99.8585Z" fill="black" fill-opacity="0.6"/>
</svg>
