<svg width="29" height="247" viewBox="0 0 29 247" fill="none" xmlns="http://www.w3.org/2000/svg">
<path d="M2.211 238.122L2.211 246.151L28 246.151L28 238.122C28 229.649 23.153 224.432 15.161 224.432C7.169 224.432 2.211 229.649 2.211 238.122ZM25.225 242.784L4.949 242.784L4.949 238.122C4.949 231.388 8.871 227.873 15.161 227.873C21.451 227.873 25.225 231.388 25.225 238.122L25.225 242.784ZM28 219.991L28 216.624L16.789 216.624C12.423 216.624 10.277 214.256 10.277 210.815C10.277 207.411 12.386 205.154 16.53 205.154L28 205.154L28 201.824L16.049 201.824C10.24 201.824 7.354 205.413 7.354 209.927C7.354 212.776 8.501 215.292 10.647 216.624L0.619998 216.624L0.619998 219.991L28 219.991ZM16.974 192.957C12.275 192.957 10.832 190.515 10.832 187.296L10.832 186.408L7.354 186.408C7.354 189.627 8.76 191.81 11.017 192.957L7.724 192.957L7.724 196.324L28 196.324L28 192.957L16.974 192.957ZM7.72399 164.539L7.724 167.906L18.861 167.906C23.227 167.906 25.373 170.237 25.373 173.715C25.373 177.119 23.264 179.376 19.157 179.376L7.724 179.376L7.724 182.706L19.601 182.706C25.41 182.706 28.296 179.043 28.296 174.381C28.296 171.68 27.112 169.201 25.003 167.906L28 167.906L28 164.539L7.72399 164.539ZM7.72399 161.259L28 153.304L28 149.382L7.72399 141.427L7.72399 145.016L24.892 151.306L7.72399 157.633L7.72399 161.259ZM9.79599 114.449C12.682 114.449 14.754 116.114 14.754 119.925L14.754 124.883L4.98599 124.883L4.98599 119.925C4.98599 116.077 6.87299 114.449 9.79599 114.449ZM2.21099 128.25L28 128.25L28 124.883L17.455 124.883L17.455 120.813L28 114.671L28 110.638L17.196 117.113C16.234 112.784 13.089 110.971 9.79599 110.971C5.57799 110.971 2.21099 113.857 2.21099 119.925L2.21099 128.25ZM17.788 106.997C24.078 106.997 28.333 102.816 28.333 97.4139C28.333 93.6769 26.409 91.0499 24.226 89.8289L28 89.8289L28 86.4249L7.72399 86.4249L7.72399 89.8289L11.424 89.8289C9.31499 91.0129 7.39099 93.6029 7.39099 97.3769C7.39099 102.816 11.461 106.997 17.788 106.997ZM17.825 89.8289C22.598 89.8289 25.373 93.0109 25.373 96.7109C25.373 100.411 22.561 103.556 17.788 103.556C13.015 103.556 10.314 100.411 10.314 96.7109C10.314 93.0109 13.126 89.8289 17.825 89.8289ZM22.45 79.995C26.52 79.995 28 77.96 28 74.371L28 71.337L25.151 71.337L25.151 73.816C25.151 75.888 24.448 76.628 22.45 76.628L10.499 76.628L10.499 71.337L7.72399 71.337L7.72399 76.628L2.61799 76.628L2.61799 79.995L7.72399 79.995L7.72399 82.622L10.499 82.622L10.499 79.995L22.45 79.995ZM28 67.2574L28 63.8904L16.789 63.8904C12.423 63.8904 10.277 61.5224 10.277 58.0814C10.277 54.6774 12.386 52.4204 16.53 52.4204L28 52.4204L28 49.0904L16.049 49.0904C10.24 49.0904 7.35399 52.6794 7.35399 57.1934C7.35399 60.0424 8.50099 62.5584 10.647 63.8904L0.619992 63.8904L0.619992 67.2574L28 67.2574ZM17.825 24.3505C11.424 24.3505 7.39099 28.8275 7.39099 34.5995C7.39099 40.3345 11.424 44.8485 17.825 44.8485C24.263 44.8485 28.333 40.4825 28.333 34.7475C28.333 28.9755 24.263 24.3505 17.825 24.3505ZM17.825 41.4075C12.719 41.4075 10.314 38.1885 10.314 34.6365C10.314 31.1585 12.719 27.7915 17.825 27.7915C22.968 27.7915 25.373 31.2325 25.373 34.7475C25.373 38.2625 22.968 41.4075 17.825 41.4075ZM17.788 21.1815C24.078 21.1815 28.333 17.0005 28.333 11.5615C28.333 7.86146 26.446 5.23446 24.189 4.01346L28 4.01346L28 0.609458L0.619989 0.609459L0.619989 4.01346L11.35 4.01346C9.01899 5.41946 7.39099 8.34246 7.39099 11.5245C7.39099 17.0005 11.461 21.1815 17.788 21.1815ZM17.825 4.01346C22.598 4.01346 25.373 7.19546 25.373 10.8955C25.373 14.5955 22.561 17.7405 17.788 17.7405C13.015 17.7405 10.314 14.5955 10.314 10.8955C10.314 7.19546 13.126 4.01346 17.825 4.01346Z" fill="black" fill-opacity="0.6"/>
</svg>
