<svg width="29" height="93" viewBox="0 0 29 93" fill="none" xmlns="http://www.w3.org/2000/svg">
<path d="M0.963 8.066L0.999999 11.803L21.757 18.019L0.999999 24.013L0.999999 27.787L26.789 35.261L26.789 31.635L4.996 25.974L26.789 20.054L26.789 16.28L4.922 10.064L26.789 4.44L26.789 0.850999L0.963 8.066ZM11.175 58.1857C17.576 58.1857 21.609 53.7087 21.609 47.9367C21.609 42.2017 17.576 37.6877 11.175 37.6877C4.737 37.6877 0.666998 42.0537 0.666998 47.7887C0.666998 53.5607 4.737 58.1857 11.175 58.1857ZM11.175 41.1287C16.281 41.1287 18.686 44.3477 18.686 47.8997C18.686 51.3777 16.281 54.7447 11.175 54.7447C6.032 54.7447 3.627 51.3037 3.627 47.7887C3.627 44.2737 6.032 41.1287 11.175 41.1287ZM12.026 65.9797C16.725 65.9797 18.168 68.4217 18.168 71.6407L18.168 72.5287L21.646 72.5287C21.646 69.3097 20.24 67.1267 17.983 65.9797L21.276 65.9797L21.276 62.6127L0.999997 62.6127L0.999997 65.9797L12.026 65.9797ZM0.999997 76.4154L0.999997 79.7824L9.954 79.7824L0.999996 87.7374L0.999996 92.3254L11.175 82.7424L21.276 92.2884L21.276 87.5894L12.285 79.7824L28.38 79.7824L28.38 76.4154L0.999997 76.4154Z" fill="black" fill-opacity="0.6"/>
</svg>
